<svg width="20" height="20" viewBox="0 0 20 20" fill="none" xmlns="http://www.w3.org/2000/svg">
<path d="M19.1228 7.41964C19.0651 7.24983 18.959 7.10061 18.8175 6.99043C18.676 6.88024 18.5054 6.81389 18.3266 6.79959L13.0974 6.38408L10.8346 1.37506C10.7626 1.21373 10.6453 1.07671 10.4971 0.980522C10.3489 0.884337 10.176 0.833105 9.99932 0.833008C9.82263 0.832911 9.64968 0.883954 9.50136 0.979976C9.35303 1.076 9.23567 1.2129 9.16343 1.37415L6.90061 6.38408L1.67146 6.79959C1.49577 6.8135 1.3278 6.87774 1.18767 6.98462C1.04753 7.0915 0.941149 7.23648 0.881253 7.40224C0.821358 7.56799 0.810484 7.74749 0.849931 7.91926C0.889379 8.09103 0.977478 8.2478 1.10369 8.37081L4.968 12.1379L3.60132 18.0559C3.55982 18.235 3.57312 18.4225 3.63949 18.594C3.70587 18.7655 3.82225 18.913 3.97353 19.0175C4.12482 19.1221 4.30403 19.1787 4.4879 19.1801C4.67177 19.1815 4.85182 19.1276 5.00469 19.0254L9.99903 15.6958L14.9934 19.0254C15.1496 19.1291 15.3339 19.1825 15.5214 19.1784C15.7088 19.1743 15.8906 19.1129 16.0421 19.0024C16.1937 18.8919 16.3077 18.7377 16.369 18.5604C16.4303 18.3832 16.4358 18.1914 16.3848 18.0109L14.7072 12.1406L18.8678 8.39649C19.1402 8.15067 19.2402 7.76727 19.1228 7.41964Z" fill="#B3E3FF"/>
</svg>
